<?xml version="1.0" encoding="utf-8"?>
<!-- Generator: Adobe Illustrator 22.1.0, SVG Export Plug-In . SVG Version: 6.00 Build 0)  -->
<svg version="1.1" id="Ebene_1" xmlns="http://www.w3.org/2000/svg" xmlns:xlink="http://www.w3.org/1999/xlink" x="0px" y="0px"
	 viewBox="0 0 410 175" style="enable-background:new 0 0 410 175;" xml:space="preserve">
<style type="text/css">
	.st0{fill:#F6F6F6;}
	.st1{fill:#353535;}
	.st2{fill:none;}
</style>
<title>all-icons</title>
<desc>Created with Sketch.</desc>
<g>
	<ellipse id="Oval" class="st0" cx="113.7" cy="94.6" rx="80.2" ry="80.4"/>
	<path id="Shape" class="st1" d="M39.8,47.5l2.6-3.9c2.4-3.6,6-3.8,9.3-1.5c3.4,2.3,4.5,5.7,2.1,9.3l-2.6,3.9L39.8,47.5z M52.1,50.2
		c1.6-2.3,0.8-4.5-1.7-6.2c-2.5-1.7-4.7-1.6-6.3,0.7l-1.3,1.9l8,5.4L52.1,50.2z"/>
	<polygon id="Shape_1_" class="st1" points="56,31.1 58.5,34.1 62.1,31 63.4,32.6 59.8,35.7 62.2,38.6 66.3,35.1 67.7,36.7 
		61.8,41.7 52.9,31.1 58.8,26.1 60.1,27.7 	"/>
	<path id="Shape_2_" class="st1" d="M70.3,30.6l1.9-1.5c0.9,1.3,2.4,1.6,4,0.9c1.2-0.6,2.1-1.6,1.5-2.9c-0.6-1.4-2.3-1.1-4.2-0.8
		c-2.2,0.3-4.4,0.6-5.4-1.8s0.3-4.5,2.7-5.5c2.2-1,4.7-1,6.2,1l-1.8,1.4c-0.9-1.2-2.2-1.3-3.5-0.7c-1.2,0.5-2.1,1.5-1.5,2.8
		c0.5,1.2,2,0.9,3.7,0.7c2.2-0.4,4.8-0.7,5.9,1.8c1.2,2.6-0.5,4.7-2.9,5.8C74.3,33,71.7,32.6,70.3,30.6z"/>
	<polygon id="Shape_3_" class="st1" points="84.7,14.5 86.9,14 89.7,27.6 87.4,28 	"/>
	<path id="Shape_4_" class="st1" d="M100.5,20.6l-1.5,0l-0.2,6.2l-2.3-0.1L97,12.8l4.8,0.1c3,0.1,4.3,1.9,4.2,4.1
		c-0.1,1.9-1.2,3.2-3.1,3.5l3.8,6.3l-2.7-0.1L100.5,20.6z M99.1,18.8l2.1,0.1c1.7,0,2.4-0.7,2.5-1.9c0-1.2-0.7-2-2.4-2.1l-2.1-0.1
		L99.1,18.8z"/>
	<polygon id="Shape_5_" class="st1" points="117.5,17.4 116.4,21.1 121,22.5 120.4,24.4 115.8,23.1 114.8,26.7 119.9,28.3 
		119.3,30.3 111.9,28 115.9,14.8 123.3,17 122.7,19 	"/>
	<path id="Shape_6_" class="st1" d="M71.8,138.1c-1.2,1.9-3.2,2.5-5.5,1.1l-4.7-2.9l7.1-11.9l3.7,2.2c2.3,1.4,3,3.5,1.8,5.4
		c-0.6,1.1-1.7,1.7-2.9,1.6C72.4,134.9,72.8,136.4,71.8,138.1z M70,136.7c0.6-1,0.4-2.2-1-3l-2.4-1.4l-2.1,3.5l2.5,1.5
		C68.3,138.1,69.4,137.6,70,136.7z M69.6,127.4l-2,3.3l2,1.2c0.4,0.3,1,0.4,1.5,0.2c0.5-0.1,0.9-0.5,1.2-1c0.6-0.9,0.4-2-0.9-2.8
		L69.6,127.4z"/>
	<path id="Shape_7_" class="st1" d="M86.9,143.9l-5.8-1.5l-1.8,2.7l-2.3-0.6l8.3-12.2l2.7,0.7l1.5,14.6l-2.3-0.6L86.9,143.9z
		 M86.7,141.8l-0.6-6.9l-3.8,5.8L86.7,141.8z"/>
	<polygon id="Shape_8_" class="st1" points="104.8,146 104.9,148.1 98,148.2 97.8,134.4 100.1,134.4 100.3,146.1 	"/>
	<path id="Shape_9_" class="st1" d="M120.9,141.4l-5.8,1.8l-0.1,3.3l-2.3,0.7l0.8-14.7l2.7-0.8l8.9,11.7l-2.3,0.7L120.9,141.4z
		 M119.7,139.7l-4.1-5.6l-0.3,6.9L119.7,139.7z"/>
	<polygon id="Shape_10_" class="st1" points="134.7,121.2 142.7,132.5 140.6,134 129,129.3 135.1,137.9 133.2,139.2 125.2,128 
		127.3,126.5 138.9,131.1 132.9,122.6 	"/>
	<path id="Shape_11_" class="st1" d="M144.1,121.6c-3.5-2.5-4-6.6-1.7-9.8c1.7-2.4,4.3-3.4,6.9-2.8l-0.6,2.2
		c-1.8-0.4-3.4,0.4-4.5,1.9c-1.5,2.1-1.2,4.8,1.3,6.7s5.2,1.2,6.7-0.9c1.1-1.5,1.2-3.3,0.3-4.9l1.9-1.3c1.4,2.3,1.2,5.1-0.5,7.4
		C151.6,123.3,147.6,124.2,144.1,121.6z"/>
	<polygon id="Shape_12_" class="st1" points="150.8,100.5 154.5,101.7 156,97.2 157.9,97.9 156.4,102.4 160,103.6 161.7,98.5 
		163.7,99.2 161.2,106.5 148.1,102 150.6,94.7 152.6,95.4 	"/>
	<polygon id="Shape_13_" class="st1" points="87,78.8 89.1,78 93.9,91 91.7,91.8 	"/>
	<polygon id="Shape_14_" class="st1" points="107.3,71.4 112,84.4 109.6,85.3 99.7,77.7 103.3,87.6 101.1,88.4 96.4,75.4 98.8,74.5 
		108.7,82 105.2,72.2 	"/>
	<path id="Shape_15_" class="st1" d="M198.2,44.3l-22.6,8.2C159.8,11,113.4-10.3,71.7,4.9c-39.2,14.3-60.8,55.7-51.4,95.4l2.4-0.6
		C13.6,61.3,34.5,21.1,72.5,7.3c40.5-14.8,85.4,5.9,100.7,46.1l-36.5,13.3l0.8,2.3L199,46.6L198.2,44.3z"/>
	<path id="Shape_16_" class="st1" d="M178.8,62.8l-2.4,0.6c9.1,38.5-11.9,78.7-49.8,92.5c-40.5,14.8-85.4-5.9-100.7-46.1l36.5-13.3
		l-0.8-2.3L0,116.6l0.8,2.3l22.6-8.2c15.8,41.5,62.1,62.9,103.9,47.6C166.5,144,188.1,102.5,178.8,62.8z"/>
</g>
<rect x="200" y="30" class="st2" width="30" height="30"/>
<rect x="380" y="30" class="st2" width="30" height="30"/>
<path id="Fill-1" class="st0" d="M395,58L395,58c-7.2,0-13-5.8-13-13c0-7.2,5.8-13,13-13h0c1.8,0,3.6,0.4,5.3,1.1
	c0.5,0.2,0.7,0.7,0.5,1.2c-0.2,0.5-0.7,0.7-1.2,0.5c-1.4-0.6-3-1-4.5-1h0c-3,0-5.8,1.2-7.9,3.3c-2.1,2.1-3.3,4.9-3.3,7.9
	c0,6.2,5,11.2,11.2,11.2h0c6.2,0,11.2-5,11.2-11.2v-1.1c0-0.5,0.4-0.9,0.9-0.9c0.5,0,0.9,0.4,0.9,0.9V45C408,52.2,402.2,58,395,58z
	 M394.6,48.5c-0.2,0-0.4-0.1-0.6-0.3l-3.4-3.7c-0.3-0.4-0.3-0.9,0-1.3c0.3-0.4,0.9-0.4,1.2,0l2.8,3l10.8-11.7c0.3-0.4,0.9-0.4,1.2,0
	c0.3,0.4,0.3,0.9,0,1.3l-11.4,12.3C395,48.4,394.8,48.5,394.6,48.5z"/>
<rect x="380" y="80" class="st2" width="20" height="20"/>
<path id="Fill-1_2_" class="st0" d="M388.7,97.3L388.7,97.3c-4.8,0-8.7-3.9-8.7-8.7c0-4.8,3.9-8.7,8.7-8.7h0c1.2,0,2.4,0.3,3.5,0.7
	c0.3,0.1,0.4,0.5,0.3,0.8c-0.1,0.3-0.5,0.4-0.8,0.3c-1-0.4-2-0.6-3-0.6h0c-2,0-3.9,0.8-5.3,2.2c-1.4,1.4-2.2,3.3-2.2,5.3
	c0,4.1,3.3,7.5,7.5,7.5h0c4.1,0,7.5-3.3,7.5-7.5v-0.7c0-0.3,0.3-0.6,0.6-0.6c0.3,0,0.6,0.3,0.6,0.6v0.7
	C397.3,93.4,393.4,97.3,388.7,97.3z M388.4,91c-0.2,0-0.3-0.1-0.4-0.2l-2.3-2.5c-0.2-0.2-0.2-0.6,0-0.9c0.2-0.2,0.6-0.2,0.8,0l1.9,2
	l7.2-7.8c0.2-0.2,0.6-0.2,0.8,0c0.2,0.2,0.2,0.6,0,0.9l-7.6,8.2C388.7,91,388.5,91,388.4,91z"/>
<rect x="380" y="60" class="st2" width="20" height="20"/>
<path id="Fill-1_3_" class="st1" d="M388.7,77.3L388.7,77.3c-4.8,0-8.7-3.9-8.7-8.7c0-4.8,3.9-8.7,8.7-8.7h0c1.2,0,2.4,0.3,3.5,0.7
	c0.3,0.1,0.4,0.5,0.3,0.8c-0.1,0.3-0.5,0.4-0.8,0.3c-1-0.4-2-0.6-3-0.6h0c-2,0-3.9,0.8-5.3,2.2c-1.4,1.4-2.2,3.3-2.2,5.3
	c0,4.1,3.3,7.5,7.5,7.5h0c4.1,0,7.5-3.3,7.5-7.5v-0.7c0-0.3,0.3-0.6,0.6-0.6c0.3,0,0.6,0.3,0.6,0.6v0.7
	C397.3,73.4,393.4,77.3,388.7,77.3z M388.4,71c-0.2,0-0.3-0.1-0.4-0.2l-2.3-2.5c-0.2-0.2-0.2-0.6,0-0.9c0.2-0.2,0.6-0.2,0.8,0l1.9,2
	l7.2-7.8c0.2-0.2,0.6-0.2,0.8,0c0.2,0.2,0.2,0.6,0,0.9l-7.6,8.2C388.7,71,388.5,71,388.4,71z"/>
<rect x="230" y="30" class="st2" width="30" height="30"/>
<path id="Icon-Telefon" class="st0" d="M238.3,32.1L238.3,32.1l-4.2,0c-0.5,0-0.9,0.3-1.1,0.6c-0.3,0.4-0.4,0.8-0.4,1.3
	c0.4,4.1,1.8,8.2,4,11.7c2,3.2,4.7,6,7.8,8.1c3.4,2.3,7.3,3.7,11.3,4.1c0,0,0.1,0,0.1,0c0.4,0,0.9-0.2,1.2-0.5
	c0.3-0.3,0.5-0.8,0.5-1.2v-4.2v0c0-0.9-0.6-1.7-1.5-1.8c-1.4-0.2-2.7-0.5-4-1c-0.6-0.2-1.3-0.1-1.8,0.4l-1.7,1.8
	c-0.3,0.3-0.8,0.4-1.2,0.2c-3.6-2.1-6.5-5.1-8.5-8.8c-0.2-0.4-0.2-0.9,0.2-1.3l1.7-1.8c0.5-0.5,0.6-1.2,0.4-1.8
	c-0.5-1.3-0.8-2.7-1-4.2C239.9,32.7,239.2,32.1,238.3,32.1 M255.8,60c-0.1,0-0.2,0-0.3,0c-4.3-0.5-8.5-2-12.2-4.5
	c-3.4-2.2-6.3-5.2-8.4-8.7c-2.4-3.8-3.9-8.1-4.3-12.6c-0.1-1,0.2-2,0.8-2.8c0.6-0.8,1.5-1.3,2.5-1.4c0.1,0,0.2,0,0.3,0h4.1h0
	c1.8,0,3.4,1.4,3.7,3.3c0.2,1.3,0.5,2.5,0.9,3.7c0.5,1.4,0.2,3-0.8,4.1l-1.2,1.2c1.7,2.8,4,5.2,6.7,6.9l1.2-1.2
	c1-1.1,2.6-1.4,3.9-0.9c1.2,0.4,2.4,0.8,3.6,0.9c1.9,0.3,3.3,1.9,3.2,3.9v4.2c0,1-0.4,2-1.1,2.7C257.7,59.6,256.8,60,255.8,60"/>
<rect x="320" class="st2" width="30" height="30"/>
<path id="Fill-4" class="st1" d="M340.6,18.8c-0.2,0-0.3,0-0.5-0.1l-5.6-2.8c-0.4-0.2-0.6-0.5-0.6-0.9V6.6c0-0.6,0.5-1,1-1
	c0.6,0,1,0.5,1,1v7.7l5,2.5c0.5,0.3,0.7,0.9,0.5,1.4C341.3,18.6,341,18.8,340.6,18.8 M335,2.1c-7.1,0-12.9,5.8-12.9,12.9
	s5.8,12.9,12.9,12.9s12.9-5.8,12.9-12.9S342.1,2.1,335,2.1 M335,30c-8.3,0-15-6.7-15-15s6.7-15,15-15s15,6.7,15,15S343.3,30,335,30"
	/>
<rect x="260" class="st2" width="30" height="30"/>
<path id="Fill-4_1_" class="st1" d="M268.3,9.4c-0.3,0-0.6-0.1-0.8-0.3c-0.2-0.2-0.3-0.5-0.3-0.8c0-0.1,0-0.3,0.1-0.4
	c0.1-0.1,0.1-0.2,0.2-0.3c0.4-0.4,1.1-0.4,1.5,0c0.1,0.1,0.2,0.2,0.2,0.3c0.1,0.1,0.1,0.3,0.1,0.4c0,0.3-0.1,0.6-0.3,0.8
	C268.9,9.3,268.6,9.4,268.3,9.4 M288.1,17.7L288.1,17.7L288.1,17.7z M274.3,27.3C274.3,27.3,274.3,27.3,274.3,27.3
	c0.3,0.3,0.8,0.5,1.3,0.5h0c0.5,0,0.9-0.2,1.3-0.5l10.4-10.4c0.7-0.7,0.7-1.9,0-2.6L275.2,2.2h-13v13L274.3,27.3L274.3,27.3z
	 M275.6,30c-1.1,0-2.1-0.4-2.8-1.2c0,0,0,0,0,0l-12.5-12.4c-0.2-0.2-0.3-0.5-0.3-0.8V1.1c0-0.6,0.5-1.1,1.1-1.1h14.5
	c0.3,0,0.6,0.1,0.8,0.3l12.5,12.5c1.5,1.6,1.5,4.1,0,5.6c0,0,0,0,0,0l-10.4,10.4C277.7,29.6,276.7,30,275.6,30L275.6,30z"/>
<rect x="200" class="st2" width="30" height="30"/>
<path id="Icon-Mail" class="st1" d="M226.2,25.4h-22.3c-1,0-1.7-0.8-1.7-1.8V8.5l12.9,9.2l12.9-9.3v15.1
	C227.9,24.6,227.1,25.4,226.2,25.4 M203.8,4.6h22.3c0.8,0,1.4,0.6,1.6,1.3L215,15.1l-12.8-9.2C202.4,5.2,203,4.6,203.8,4.6
	 M226.2,2.5h-22.3c-2.1,0-3.8,1.8-3.8,3.9v17.1c0,2.2,1.7,3.9,3.8,3.9h22.3c2.1,0,3.8-1.8,3.8-3.9V6.4C230,4.3,228.3,2.5,226.2,2.5"
	/>
<g>
	<rect x="200" y="60" class="st2" width="20" height="20"/>
	<path id="Icon-Mail_2_" class="st1" d="M217.4,76.9h-14.9c-0.6,0-1.2-0.5-1.2-1.2V65.7l8.6,6.2l8.6-6.2v10.1
		C218.6,76.4,218.1,76.9,217.4,76.9 M202.6,63.1h14.9c0.5,0,1,0.4,1.1,0.9l-8.5,6.1l-8.5-6.1C201.6,63.5,202,63.1,202.6,63.1
		 M217.4,61.7h-14.9c-1.4,0-2.6,1.2-2.6,2.6v11.4c0,1.4,1.1,2.6,2.6,2.6h14.9c1.4,0,2.6-1.2,2.6-2.6V64.3
		C220,62.8,218.9,61.7,217.4,61.7"/>
</g>
<rect x="230" class="st2" width="30" height="30"/>
<path id="Icon-Telefon_1_" class="st1" d="M238.3,2L238.3,2L234,2c-0.5,0-0.9,0.3-1.2,0.6c-0.3,0.4-0.4,0.8-0.4,1.3
	c0.4,4.2,1.8,8.2,4,11.8c2,3.3,4.7,6.1,7.8,8.1c3.4,2.3,7.3,3.7,11.3,4.2c0,0,0.1,0,0.1,0c0.4,0,0.9-0.2,1.2-0.5
	c0.3-0.3,0.5-0.8,0.5-1.2V22v0c0-0.9-0.6-1.7-1.5-1.8c-1.4-0.2-2.7-0.5-4-1c-0.6-0.2-1.3-0.1-1.8,0.4l-1.7,1.8
	c-0.3,0.3-0.8,0.4-1.2,0.2c-3.6-2.1-6.5-5.2-8.5-8.9c-0.2-0.4-0.2-0.9,0.2-1.3l1.7-1.8c0.5-0.5,0.6-1.2,0.4-1.9
	c-0.5-1.4-0.8-2.8-1-4.2C239.9,2.6,239.1,2,238.3,2 M255.8,30c-0.1,0-0.2,0-0.3,0c-4.3-0.5-8.5-2-12.2-4.5c-3.4-2.2-6.3-5.2-8.4-8.7
	c-2.4-3.8-3.9-8.1-4.3-12.6c-0.1-1,0.2-2,0.8-2.8c0.6-0.8,1.5-1.3,2.5-1.4c0.1,0,0.2,0,0.3,0h4.1h0c1.8,0,3.4,1.4,3.7,3.3
	c0.2,1.3,0.5,2.5,0.9,3.7c0.5,1.4,0.2,3-0.8,4.1l-1.2,1.2c1.7,2.8,4,5.2,6.7,6.9l1.2-1.2c1-1.1,2.6-1.4,3.9-0.9
	c1.2,0.4,2.4,0.8,3.6,0.9c1.9,0.3,3.3,1.9,3.2,3.9v4.2c0,1-0.4,2-1.1,2.7C257.7,29.6,256.8,30,255.8,30"/>
<rect x="350" class="st2" width="30" height="30"/>
<path id="Icon-Calendar" class="st1" d="M374.7,27.9h-19.4c-1,0-1.7-0.8-1.7-1.7V13.3h22.8v12.9C376.4,27.1,375.6,27.9,374.7,27.9
	 M355.3,4.9h3.1v1.7c0,0.6,0.5,1,1,1c0.6,0,1-0.5,1-1V4.9h9v1.7c0,0.6,0.5,1,1,1c0.6,0,1-0.5,1-1V4.9h3.1c1,0,1.7,0.8,1.7,1.7v4.5
	h-22.8V6.6C353.6,5.7,354.4,4.9,355.3,4.9 M374.7,2.8h-3.1V1c0-0.6-0.5-1-1-1c-0.6,0-1,0.5-1,1v1.7h-9V1c0-0.6-0.5-1-1-1
	c-0.6,0-1,0.5-1,1v1.7h-3.1c-2.1,0-3.8,1.7-3.8,3.8v19.5c0,2.1,1.7,3.8,3.8,3.8h19.4c2.1,0,3.8-1.7,3.8-3.8V6.6
	C378.5,4.5,376.8,2.8,374.7,2.8"/>
<path id="Icon-Mail_1_" class="st0" d="M226.2,55.4h-22.3c-1,0-1.7-0.8-1.7-1.8V38.5l12.9,9.2l12.9-9.3v15.1
	C227.9,54.6,227.1,55.4,226.2,55.4 M203.8,34.6h22.3c0.8,0,1.4,0.6,1.6,1.3L215,45.1l-12.8-9.2C202.4,35.2,203,34.6,203.8,34.6
	 M226.2,32.5h-22.3c-2.1,0-3.8,1.8-3.8,3.9v17.1c0,2.2,1.7,3.9,3.8,3.9h22.3c2.1,0,3.8-1.8,3.8-3.9V36.4
	C230,34.3,228.3,32.5,226.2,32.5"/>
<g>
	<rect x="200" y="80" class="st2" width="20" height="20"/>
	<path id="Icon-Mail_3_" class="st0" d="M217.4,96.9h-14.9c-0.6,0-1.2-0.5-1.2-1.2V85.7l8.6,6.2l8.6-6.2v10.1
		C218.6,96.4,218.1,96.9,217.4,96.9 M202.6,83.1h14.9c0.5,0,1,0.4,1.1,0.9l-8.5,6.1l-8.5-6.1C201.6,83.5,202,83.1,202.6,83.1
		 M217.4,81.7h-14.9c-1.4,0-2.6,1.2-2.6,2.6v11.4c0,1.4,1.1,2.6,2.6,2.6h14.9c1.4,0,2.6-1.2,2.6-2.6V84.3
		C220,82.8,218.9,81.7,217.4,81.7"/>
</g>
<rect x="290" class="st2" width="30" height="30"/>
<path id="Fill-1_1_" class="st1" d="M305,2c-5.8,0-10.5,4.7-10.5,10.5c0,7.3,8.3,13.8,10.5,15.5c2.2-1.6,10.5-8.2,10.5-15.5
	C315.5,6.7,310.8,2,305,2 M305,30c-0.2,0-0.4-0.1-0.5-0.2c-0.5-0.3-12-8.1-12-17.4C292.5,5.6,298.1,0,305,0s12.5,5.6,12.5,12.4
	c0,9.3-11.5,17.1-12,17.4C305.4,29.9,305.2,30,305,30 M305.5,10c-1.7,0-3,1.3-3,3s1.3,3,3,3c1.7,0,3-1.3,3-3S307.2,10,305.5,10
	 M305.5,18c-2.8,0-5-2.2-5-5s2.2-5,5-5c2.8,0,5,2.2,5,5S308.3,18,305.5,18"/>
</svg>
